<svg xmlns="http://www.w3.org/2000/svg" viewBox="0 0 564.83 147.15"><defs><style>.cls-1{fill:#706f6f;}.cls-2{fill:#7895b6;}.cls-3{fill:#16427e;}</style></defs><g id="Ebene_2" data-name="Ebene 2"><g id="Ebene_1-2" data-name="Ebene 1"><path class="cls-1" d="M217.9,141.1a1.09,1.09,0,0,1-.8-.31,1,1,0,0,1-.31-.78V120.32a1.06,1.06,0,0,1,.31-.78,1.09,1.09,0,0,1,.8-.31h5.35a7.87,7.87,0,0,1,3.71.86,6.36,6.36,0,0,1,2.55,2.38,6.57,6.57,0,0,1,.93,3.51,6.25,6.25,0,0,1-.93,3.39,6.36,6.36,0,0,1-2.55,2.32,8,8,0,0,1-3.71.84H219V140a1,1,0,0,1-.32.78A1.07,1.07,0,0,1,217.9,141.1ZM219,130.43h4.23a5.63,5.63,0,0,0,2.58-.57,4.58,4.58,0,0,0,1.79-1.58,4.2,4.2,0,0,0,.65-2.3,4.41,4.41,0,0,0-2.44-4.06,5.51,5.51,0,0,0-2.58-.59H219Zm10.82,10.67a1.08,1.08,0,0,1-.58-.14,1.23,1.23,0,0,1-.39-.42L223.39,132l2.23-.56,5.11,8a1.14,1.14,0,0,1,.16,1.18A1.1,1.1,0,0,1,229.84,141.1Z"/><path class="cls-1" d="M241,141.24a7.64,7.64,0,0,1-3.94-1,7.54,7.54,0,0,1-2.76-2.79,7.87,7.87,0,0,1-1-4,7.69,7.69,0,0,1,1-4,7.58,7.58,0,0,1,2.84-2.78,8.48,8.48,0,0,1,8.1,0,7.7,7.7,0,0,1,2.83,2.78,8,8,0,0,1,1.07,4l-.89.67a7,7,0,0,1-3.55,6.17A7.36,7.36,0,0,1,241,141.24Zm.23-2a5.69,5.69,0,0,0,2.95-.76,5.56,5.56,0,0,0,2.06-2.08,6.26,6.26,0,0,0,0-6,5.81,5.81,0,0,0-10,0,6.19,6.19,0,0,0,0,6,5.56,5.56,0,0,0,2.09,2.08A5.7,5.7,0,0,0,241.27,139.28Zm6.82,1.82a1.16,1.16,0,0,1-.8-.29A1,1,0,0,1,247,140v-4.79l.54-2.21,1.69.42V140a1,1,0,0,1-.32.77A1.14,1.14,0,0,1,248.09,141.1Z"/><path class="cls-1" d="M260.29,141.27a7.83,7.83,0,0,1-3.63-.83,6.14,6.14,0,0,1-2.53-2.42,7.59,7.59,0,0,1-.92-3.89v-7.28a1,1,0,0,1,.31-.76,1.09,1.09,0,0,1,.77-.31,1.13,1.13,0,0,1,.8.31,1,1,0,0,1,.31.76v7.28a5.42,5.42,0,0,0,.68,2.85,4.16,4.16,0,0,0,1.82,1.68,5.86,5.86,0,0,0,2.62.56,5.75,5.75,0,0,0,2.52-.53,4.46,4.46,0,0,0,1.79-1.45,3.54,3.54,0,0,0,.66-2.1h1.57a6.24,6.24,0,0,1-3.4,5.33A7.13,7.13,0,0,1,260.29,141.27Zm6.28-.17a1,1,0,0,1-1.08-1.09V126.85a1,1,0,0,1,.3-.77,1.06,1.06,0,0,1,.78-.3,1.12,1.12,0,0,1,.8.3,1,1,0,0,1,.31.77V140a1.05,1.05,0,0,1-.31.8A1.16,1.16,0,0,1,266.57,141.1Z"/><path class="cls-1" d="M273.94,141.1a1.13,1.13,0,0,1-.81-.29,1,1,0,0,1-.3-.77V126.88a1,1,0,0,1,1.11-1.1,1,1,0,0,1,1.08,1.1V140a1,1,0,0,1-.3.77A1.09,1.09,0,0,1,273.94,141.1Zm10,0a1.16,1.16,0,0,1-.8-.29,1,1,0,0,1-.31-.77V132a4.5,4.5,0,0,0-1.06-3.15,3.51,3.51,0,0,0-2.71-1.16,3.91,3.91,0,0,0-4.06,4.09h-1.57a6.94,6.94,0,0,1,.82-3.18,5.54,5.54,0,0,1,2.07-2.17,6.06,6.06,0,0,1,6,0,5.3,5.3,0,0,1,2,2.21,7.24,7.24,0,0,1,.73,3.36V140a1,1,0,0,1-.3.77A1.1,1.1,0,0,1,284,141.1Zm10,0a1.16,1.16,0,0,1-.8-.29,1,1,0,0,1-.31-.77V132a4.5,4.5,0,0,0-1.06-3.15,3.51,3.51,0,0,0-2.71-1.16,3.88,3.88,0,0,0-2.9,1.16,4.18,4.18,0,0,0-1.1,3.1h-2a6.82,6.82,0,0,1,.83-3.31,5.57,5.57,0,0,1,2.2-2.21,6.39,6.39,0,0,1,3.17-.78,5.69,5.69,0,0,1,3,.78,5.37,5.37,0,0,1,2,2.21A7.36,7.36,0,0,1,295,132V140a1,1,0,0,1-.3.77A1.1,1.1,0,0,1,293.93,141.1Z"/><path class="cls-1" d="M307.3,128.22a1,1,0,0,1-.73-.27.86.86,0,0,1-.27-.65.93.93,0,0,1,.27-.69,1,1,0,0,1,.73-.27h7.45a1,1,0,0,1,.73.27.93.93,0,0,1,.27.69.86.86,0,0,1-.27.65,1,1,0,0,1-.73.27Zm2.88,12.88a1.08,1.08,0,0,1-.74-.29,1.05,1.05,0,0,1-.31-.8v-14.2a8.09,8.09,0,0,1,.68-3.44,5.19,5.19,0,0,1,2-2.31,6.14,6.14,0,0,1,3.28-.83,1.18,1.18,0,0,1,.8.28.91.91,0,0,1,.32.7.89.89,0,0,1-.32.7,1.13,1.13,0,0,1-.8.28,3.68,3.68,0,0,0-2.13.58,3.37,3.37,0,0,0-1.25,1.59,6.1,6.1,0,0,0-.42,2.34V140a1.09,1.09,0,0,1-.3.8A1.17,1.17,0,0,1,310.18,141.1Z"/><path class="cls-1" d="M325.49,141.27a7.83,7.83,0,0,1-3.63-.83,6.11,6.11,0,0,1-2.52-2.42,7.59,7.59,0,0,1-.93-3.89v-7.28a1,1,0,0,1,.31-.76,1.09,1.09,0,0,1,.77-.31,1.11,1.11,0,0,1,.8.31,1,1,0,0,1,.32.76v7.28a5.42,5.42,0,0,0,.67,2.85,4.13,4.13,0,0,0,1.83,1.68,6.33,6.33,0,0,0,5.14,0,4.49,4.49,0,0,0,1.78-1.45,3.54,3.54,0,0,0,.66-2.1h1.57a6.24,6.24,0,0,1-3.4,5.33A7.13,7.13,0,0,1,325.49,141.27ZM322.81,123a1.53,1.53,0,0,1-1.13-.43,1.56,1.56,0,0,1,1.13-2.65,1.52,1.52,0,0,1,1.11.47,1.52,1.52,0,0,1,0,2.18A1.56,1.56,0,0,1,322.81,123Zm6,0a1.52,1.52,0,0,1-1.12-.43,1.56,1.56,0,0,1,1.12-2.65,1.53,1.53,0,0,1,1.12.47,1.52,1.52,0,0,1,0,2.18A1.57,1.57,0,0,1,328.77,123Zm3,18.12a1,1,0,0,1-1.08-1.09V126.85a1,1,0,0,1,.3-.77,1.06,1.06,0,0,1,.78-.3,1.1,1.1,0,0,1,.8.3,1,1,0,0,1,.32.77V140a1.06,1.06,0,0,1-.32.8A1.14,1.14,0,0,1,331.77,141.1Z"/><path class="cls-1" d="M339.11,141.1a1.08,1.08,0,0,1-.8-.28A1.05,1.05,0,0,1,338,140V126.85a1.06,1.06,0,0,1,.28-.79,1.13,1.13,0,0,1,.8-.28,1.11,1.11,0,0,1,.8.28,1.07,1.07,0,0,1,.29.79V140a1.06,1.06,0,0,1-.29.78A1.07,1.07,0,0,1,339.11,141.1Zm-.17-9.44a6.47,6.47,0,0,1,.93-3.1,6.07,6.07,0,0,1,2.2-2.16,5.92,5.92,0,0,1,3-.78,4.61,4.61,0,0,1,2,.36.86.86,0,0,1,.54,1.06.8.8,0,0,1-.38.56,1.24,1.24,0,0,1-.66.12l-.87-.06a6.48,6.48,0,0,0-2.84.32,4.25,4.25,0,0,0-2,1.42,3.58,3.58,0,0,0-.73,2.26Z"/><path class="cls-1" d="M360.88,141.1a1.1,1.1,0,0,1-.79-.32,1,1,0,0,1-.33-.77V120.32a1,1,0,0,1,.33-.78,1.09,1.09,0,0,1,.79-.31,1.08,1.08,0,0,1,1,.56l9.62,18.76h-1L380,119.79a1.11,1.11,0,0,1,1-.56,1,1,0,0,1,.77.31,1.06,1.06,0,0,1,.32.78V140a1.07,1.07,0,0,1-.32.77,1,1,0,0,1-.77.32,1.13,1.13,0,0,1-.81-.32,1,1,0,0,1-.33-.77V123.15l.48,0-8.42,16.88a1,1,0,0,1-1,.54,1.07,1.07,0,0,1-1-.68l-8.48-16.63.57-.14V140a1,1,0,0,1-.33.77A1.1,1.1,0,0,1,360.88,141.1Z"/><path class="cls-1" d="M394.6,141.24a8.23,8.23,0,0,1-4.08-1,7.38,7.38,0,0,1-2.83-2.77,8.36,8.36,0,0,1,0-8,7.45,7.45,0,0,1,2.83-2.77,8.23,8.23,0,0,1,4.08-1,8.14,8.14,0,0,1,4.07,1,7.5,7.5,0,0,1,2.82,2.77,8.15,8.15,0,0,1,1.05,4,7.67,7.67,0,0,1-1,4,7.45,7.45,0,0,1-2.83,2.77A8.14,8.14,0,0,1,394.6,141.24Zm0-2a5.76,5.76,0,0,0,3-.76,5.32,5.32,0,0,0,2.06-2.07,5.92,5.92,0,0,0,.74-3,6,6,0,0,0-.74-3,5.31,5.31,0,0,0-2.06-2.09,6.18,6.18,0,0,0-5.94,0,5.54,5.54,0,0,0-2.07,2.09,6,6,0,0,0-.75,3,5.93,5.93,0,0,0,.75,3,5.56,5.56,0,0,0,2.07,2.07A5.81,5.81,0,0,0,394.6,139.28Zm-3-16.3a1.52,1.52,0,0,1-1.12-.43,1.56,1.56,0,0,1,1.12-2.65,1.53,1.53,0,0,1,1.12.47,1.54,1.54,0,0,1,0,2.18A1.57,1.57,0,0,1,391.63,123Zm6,0a1.56,1.56,0,0,1-1.13-.43,1.56,1.56,0,0,1,1.13-2.65,1.53,1.53,0,0,1,1.12.47,1.54,1.54,0,0,1,0,2.18A1.57,1.57,0,0,1,397.6,123Z"/><path class="cls-1" d="M413.71,141.24a8,8,0,0,1-4-1,7.24,7.24,0,0,1-2.73-2.76,8.21,8.21,0,0,1-1-4,7.83,7.83,0,0,1,1-4.06,7.26,7.26,0,0,1,2.82-2.76,8.88,8.88,0,0,1,8.19,0,7.21,7.21,0,0,1,2.8,2.76,8.24,8.24,0,0,1,1,4.06l-1.29.67a7.5,7.5,0,0,1-.88,3.68,6.57,6.57,0,0,1-2.44,2.52A6.91,6.91,0,0,1,413.71,141.24Zm.29,5.91a9,9,0,0,1-4-.83,7.77,7.77,0,0,1-2.83-2.25.9.9,0,0,1-.27-.73.85.85,0,0,1,.41-.64,1.16,1.16,0,0,1,1.54.25,6.12,6.12,0,0,0,2.13,1.62,7,7,0,0,0,3,.62,5.55,5.55,0,0,0,2.89-.76,5.37,5.37,0,0,0,2-2.13,6.47,6.47,0,0,0,.76-3.22v-4.25l.83-1.63,1.34.26v5.71a8,8,0,0,1-1,4.07,7.61,7.61,0,0,1-2.8,2.86A7.79,7.79,0,0,1,414,147.15Zm-.06-7.87a5.93,5.93,0,0,0,3-.74,5.41,5.41,0,0,0,2.05-2.06,6.57,6.57,0,0,0,0-6.06,5.3,5.3,0,0,0-2.05-2.07,5.84,5.84,0,0,0-3-.75,6,6,0,0,0-3,.75,5.26,5.26,0,0,0-2.06,2.07,6.57,6.57,0,0,0,0,6.06,5.37,5.37,0,0,0,2.06,2.06A6.06,6.06,0,0,0,413.94,139.28Z"/><path class="cls-1" d="M429.53,141.1a3.54,3.54,0,0,1-2-.62,4.06,4.06,0,0,1-1.4-1.7,6.06,6.06,0,0,1-.5-2.52v-16a1,1,0,0,1,.3-.77,1.18,1.18,0,0,1,1.57,0,1,1,0,0,1,.3.77v16a3.54,3.54,0,0,0,.5,2,1.5,1.5,0,0,0,1.27.75h.72a.85.85,0,0,1,.68.3,1.12,1.12,0,0,1,.26.77,1,1,0,0,1-.36.77,1.46,1.46,0,0,1-.93.29Z"/><path class="cls-1" d="M435.76,122.87a1.51,1.51,0,0,1-1.09-.45,1.46,1.46,0,0,1-.45-1.09,1.36,1.36,0,0,1,.47-1.1,1.63,1.63,0,0,1,1.1-.41,1.61,1.61,0,0,1,1.07.41,1.39,1.39,0,0,1,.47,1.1,1.44,1.44,0,0,1-.46,1.09A1.51,1.51,0,0,1,435.76,122.87Zm0,18.23a1.14,1.14,0,0,1-.82-.29,1.09,1.09,0,0,1-.3-.8V126.88a1.06,1.06,0,0,1,.3-.8,1.1,1.1,0,0,1,.82-.3,1,1,0,0,1,1.08,1.1V140a1,1,0,0,1-1.08,1.09Z"/><path class="cls-1" d="M449.44,141.24a7.82,7.82,0,0,1-4-1,7.42,7.42,0,0,1-2.77-2.79,7.77,7.77,0,0,1-1-4,8.26,8.26,0,0,1,1-4,7.4,7.4,0,0,1,2.66-2.78,7.26,7.26,0,0,1,3.88-1,7.65,7.65,0,0,1,3.22.68,7.19,7.19,0,0,1,2.58,2,.76.76,0,0,1,.23.72,1.09,1.09,0,0,1-.49.65.91.91,0,0,1-.7.16,1.15,1.15,0,0,1-.67-.41,5.36,5.36,0,0,0-4.17-1.85,5.25,5.25,0,0,0-2.81.76,5,5,0,0,0-1.88,2.07,6.56,6.56,0,0,0-.68,3,6.12,6.12,0,0,0,.72,3,5.17,5.17,0,0,0,2,2.07,5.6,5.6,0,0,0,2.94.76,6.93,6.93,0,0,0,2-.29,4.62,4.62,0,0,0,1.64-.91,1.28,1.28,0,0,1,.72-.31.93.93,0,0,1,.68.22,1.11,1.11,0,0,1,.39.7.74.74,0,0,1-.27.67A7.5,7.5,0,0,1,449.44,141.24Z"/><path class="cls-1" d="M460.61,134.86a1.11,1.11,0,0,1-.82-.31,1.09,1.09,0,0,1-.3-.79V120.32a1,1,0,0,1,.3-.79,1.1,1.1,0,0,1,.82-.3,1,1,0,0,1,1.08,1.09v13.44a1.09,1.09,0,0,1-.3.79A1.06,1.06,0,0,1,460.61,134.86Zm0,6.24a1.14,1.14,0,0,1-.82-.29,1,1,0,0,1-.3-.77V126.88a1.06,1.06,0,0,1,.3-.8,1.1,1.1,0,0,1,.82-.3,1,1,0,0,1,1.08,1.1V140a1,1,0,0,1-.3.77A1.09,1.09,0,0,1,460.61,141.1Zm12.28,0a1.07,1.07,0,0,1-.8-.31,1,1,0,0,1-.32-.75v-7.28a5.48,5.48,0,0,0-.67-2.86,4.24,4.24,0,0,0-1.83-1.68,6.33,6.33,0,0,0-5.14,0,4.52,4.52,0,0,0-1.78,1.46,3.5,3.5,0,0,0-.66,2.1h-1.57a5.94,5.94,0,0,1,1-3.15,6.5,6.5,0,0,1,2.43-2.19,7.13,7.13,0,0,1,3.37-.79,7.82,7.82,0,0,1,3.63.82,6.18,6.18,0,0,1,2.52,2.42,7.66,7.66,0,0,1,.93,3.9V140a1,1,0,0,1-.31.75A1,1,0,0,1,472.89,141.1Z"/><path class="cls-1" d="M479.91,141.1a1.09,1.09,0,0,1-.78-.29,1,1,0,0,1-.3-.77V120.3a1,1,0,0,1,.3-.77,1.18,1.18,0,0,1,1.57,0,1,1,0,0,1,.3.77V140a1,1,0,0,1-.3.77A1.1,1.1,0,0,1,479.91,141.1Zm.72-5.12-1.35-1.43,9.77-8.65a1,1,0,0,1,.71-.3,1,1,0,0,1,.69.35,1,1,0,0,1,.3.72.85.85,0,0,1-.36.65Zm9.85,5a1,1,0,0,1-.77.27,1,1,0,0,1-.69-.41l-6.37-7.67,1.55-1.35,6.42,7.76a1,1,0,0,1,.26.71A1,1,0,0,1,490.48,141Z"/><path class="cls-1" d="M502.25,141.24a8.29,8.29,0,0,1-4.1-1,7.28,7.28,0,0,1-2.8-2.76,7.92,7.92,0,0,1-1-4,8.28,8.28,0,0,1,1-4.05,7.15,7.15,0,0,1,2.64-2.76,7.47,7.47,0,0,1,3.89-1,7.25,7.25,0,0,1,3.78,1,6.57,6.57,0,0,1,2.5,2.67,8.36,8.36,0,0,1,.89,3.9.94.94,0,0,1-.29.71,1,1,0,0,1-.74.27H495.82v-1.8h12.37l-1.23.87a6.27,6.27,0,0,0-.6-2.91,4.88,4.88,0,0,0-1.79-2,5.1,5.1,0,0,0-2.75-.72,5.38,5.38,0,0,0-2.86.75,5.12,5.12,0,0,0-1.9,2.09,6.6,6.6,0,0,0-.67,3,5.92,5.92,0,0,0,.76,3,5.42,5.42,0,0,0,2.07,2.07,5.88,5.88,0,0,0,3,.76,6.61,6.61,0,0,0,2.07-.35,5.33,5.33,0,0,0,1.67-.88,1.16,1.16,0,0,1,.71-.27,1,1,0,0,1,.69.21,1.05,1.05,0,0,1,.38.73.8.8,0,0,1-.33.67,7.79,7.79,0,0,1-2.4,1.3A8.2,8.2,0,0,1,502.25,141.24Z"/><path class="cls-1" d="M514.24,122.87a1.47,1.47,0,0,1-1.08-.45,1.44,1.44,0,0,1-.46-1.09,1.39,1.39,0,0,1,.47-1.1,1.63,1.63,0,0,1,1.1-.41,1.59,1.59,0,0,1,1.07.41,1.39,1.39,0,0,1,.47,1.1,1.44,1.44,0,0,1-.46,1.09A1.51,1.51,0,0,1,514.24,122.87Zm0,18.23a1.13,1.13,0,0,1-.81-.29,1.09,1.09,0,0,1-.3-.8V126.88a1.06,1.06,0,0,1,.3-.8,1.22,1.22,0,0,1,1.6,0,1.05,1.05,0,0,1,.29.8V140a1.08,1.08,0,0,1-.29.8A1.13,1.13,0,0,1,514.27,141.1Z"/><path class="cls-1" d="M520,128.22a1,1,0,0,1-.71-.27.84.84,0,0,1-.29-.65.91.91,0,0,1,.29-.69,1,1,0,0,1,.71-.27h7.29a1,1,0,0,1,.71.27.91.91,0,0,1,.29.69.84.84,0,0,1-.29.65,1,1,0,0,1-.71.27Zm7.11,12.88a5.11,5.11,0,0,1-4.57-2.62,5.64,5.64,0,0,1-.68-2.78V122a1.07,1.07,0,0,1,.3-.78,1,1,0,0,1,.78-.31,1.07,1.07,0,0,1,.8.31,1,1,0,0,1,.32.78v13.7a3.21,3.21,0,0,0,.86,2.33,2.86,2.86,0,0,0,2.19.91h.78a1,1,0,0,1,.74.31,1.12,1.12,0,0,1,.28.79,1,1,0,0,1-.34.77,1.3,1.3,0,0,1-.86.29Z"/><path class="cls-1" d="M539.52,141.24a8.29,8.29,0,0,1-4.1-1,7.28,7.28,0,0,1-2.8-2.76,7.92,7.92,0,0,1-1-4,8.28,8.28,0,0,1,1-4.05,7.15,7.15,0,0,1,2.64-2.76,7.47,7.47,0,0,1,3.89-1,7.25,7.25,0,0,1,3.78,1,6.57,6.57,0,0,1,2.5,2.67,8.36,8.36,0,0,1,.89,3.9.94.94,0,0,1-.29.71,1,1,0,0,1-.74.27H533.09v-1.8h12.37l-1.23.87a6.27,6.27,0,0,0-.6-2.91,4.88,4.88,0,0,0-1.79-2,5.1,5.1,0,0,0-2.75-.72,5.38,5.38,0,0,0-2.86.75,5.12,5.12,0,0,0-1.9,2.09,6.73,6.73,0,0,0-.67,3,5.92,5.92,0,0,0,.76,3,5.42,5.42,0,0,0,2.07,2.07,5.88,5.88,0,0,0,3,.76,6.61,6.61,0,0,0,2.07-.35,5.33,5.33,0,0,0,1.67-.88,1.16,1.16,0,0,1,.71-.27,1,1,0,0,1,.69.21,1.05,1.05,0,0,1,.38.73.8.8,0,0,1-.33.67,7.56,7.56,0,0,1-2.4,1.3A8.2,8.2,0,0,1,539.52,141.24Z"/><path class="cls-1" d="M551.08,141.1a1.13,1.13,0,0,1-.81-.29,1,1,0,0,1-.3-.77V126.88a1.06,1.06,0,0,1,.3-.8,1.09,1.09,0,0,1,.81-.3,1,1,0,0,1,1.09,1.1V140a1,1,0,0,1-.3.77A1.1,1.1,0,0,1,551.08,141.1Zm12.28,0a1.09,1.09,0,0,1-.8-.31,1,1,0,0,1-.31-.75v-7.28a5.48,5.48,0,0,0-.67-2.86,4.24,4.24,0,0,0-1.83-1.68,6.33,6.33,0,0,0-5.14,0,4.45,4.45,0,0,0-1.78,1.46,3.5,3.5,0,0,0-.66,2.1H550.6a5.94,5.94,0,0,1,1-3.15,6.5,6.5,0,0,1,2.43-2.19,7.13,7.13,0,0,1,3.37-.79,7.75,7.75,0,0,1,3.62.82,6.14,6.14,0,0,1,2.53,2.42,7.66,7.66,0,0,1,.93,3.9V140a1,1,0,0,1-.31.75A1.06,1.06,0,0,1,563.36,141.1Z"/><path class="cls-2" d="M5,9.94A4.92,4.92,0,0,1,1.4,8.54,4.72,4.72,0,0,1,0,5,4.9,4.9,0,0,1,1.4,1.4,4.92,4.92,0,0,1,5,0H82.46A4.94,4.94,0,0,1,86.1,1.4,4.94,4.94,0,0,1,87.5,5a4.76,4.76,0,0,1-1.4,3.5,4.94,4.94,0,0,1-3.64,1.4Zm38.64,99.4a5.5,5.5,0,0,1-5.46-5.46V0H49.14V103.88a5.4,5.4,0,0,1-1.54,3.85A5.2,5.2,0,0,1,43.68,109.34Z"/><path class="cls-2" d="M90.78,110a36.84,36.84,0,0,1-19.31-5.11A37.28,37.28,0,0,1,58,91a39.82,39.82,0,0,1-5-19.88,39.16,39.16,0,0,1,5.11-20A37.66,37.66,0,0,1,72,37.17a38.94,38.94,0,0,1,19.89-5.11,38.54,38.54,0,0,1,19.81,5.11A37.87,37.87,0,0,1,125.58,51.1a40.36,40.36,0,0,1,5.25,20l-4.34,3.36a35.42,35.42,0,0,1-4.69,18.13,34.83,34.83,0,0,1-12.74,12.74A35.61,35.61,0,0,1,90.78,110Zm1.13-9.8a27.87,27.87,0,0,0,14.49-3.78A27.43,27.43,0,0,0,116.47,86a30,30,0,0,0,3.71-14.91,29.91,29.91,0,0,0-3.71-15A28.09,28.09,0,0,0,106.4,45.71a29.06,29.06,0,0,0-28.91,0A28.43,28.43,0,0,0,67.26,56.14a29.63,29.63,0,0,0-3.77,15A29.71,29.71,0,0,0,67.26,86a27.73,27.73,0,0,0,24.65,14.21Zm33.45,9.1a5.46,5.46,0,0,1-3.92-1.47,5.09,5.09,0,0,1-1.53-3.85V80.08L122.57,69l8.26,2.1V104a5.07,5.07,0,0,1-1.55,3.85A5.43,5.43,0,0,1,125.36,109.34Z"/><path class="cls-2" d="M172.63,110a38.25,38.25,0,0,1-19.6-5,35.12,35.12,0,0,1-13.37-13.79,41.28,41.28,0,0,1-4.83-20.16,40.2,40.2,0,0,1,5-20.3A36.08,36.08,0,0,1,153.73,37a42.95,42.95,0,0,1,40.11,0,35.79,35.79,0,0,1,13.72,13.79,41.82,41.82,0,0,1,5.11,20.3l-6.3,3.36A38.22,38.22,0,0,1,202,92.89a32.14,32.14,0,0,1-12,12.6A33.42,33.42,0,0,1,172.63,110Zm1.4,29.54a43.61,43.61,0,0,1-19.46-4.13,38.56,38.56,0,0,1-13.86-11.27,4.51,4.51,0,0,1-1.33-3.64,4.36,4.36,0,0,1,2-3.22,5.17,5.17,0,0,1,4.06-.84,5.46,5.46,0,0,1,3.5,2.1,29.68,29.68,0,0,0,10.43,8.12,33.58,33.58,0,0,0,14.77,3.08A27,27,0,0,0,188.31,126a27.26,27.26,0,0,0,10-10.64A33.37,33.37,0,0,0,202,99.26V78l4.06-8.12,6.58,1.26V99.68a41.08,41.08,0,0,1-5,20.37,38.1,38.1,0,0,1-13.72,14.28A37.67,37.67,0,0,1,174,139.58Zm-.28-39.34a28.59,28.59,0,0,0,14.63-3.71,26.55,26.55,0,0,0,10-10.29A30.81,30.81,0,0,0,202,71.12a31.19,31.19,0,0,0-3.64-15.19,26.47,26.47,0,0,0-10-10.36,28.59,28.59,0,0,0-14.63-3.71,28.93,28.93,0,0,0-14.7,3.71A26.17,26.17,0,0,0,149,55.93a31.08,31.08,0,0,0-3.64,15.19A30.7,30.7,0,0,0,149,86.24a26.25,26.25,0,0,0,10.08,10.29A28.93,28.93,0,0,0,173.75,100.24Z"/><path class="cls-3" d="M223.94,109.34a7.16,7.16,0,0,1-7.27-7.28V7.28A7,7,0,0,1,218.76,2a7.2,7.2,0,0,1,5.18-2,7.07,7.07,0,0,1,6.45,3.92L274.21,91.7h-4.48l42.7-87.78A7.05,7.05,0,0,1,318.87,0a7.18,7.18,0,0,1,5.18,2,7,7,0,0,1,2.1,5.25v94.78a7,7,0,0,1-2.17,5.18,7.24,7.24,0,0,1-12.39-5.18V27.44l2.8-.7L277.71,101.5a7.23,7.23,0,0,1-6.3,3.64,7,7,0,0,1-6.73-4.34L228.43,28.14l2.8-.7v74.62a7.17,7.17,0,0,1-7.29,7.28Z"/><path class="cls-3" d="M419,109.48a6.94,6.94,0,0,1-7.14-7.14V39.9a6.85,6.85,0,0,1,2-5.18,7.11,7.11,0,0,1,12.25,5.18v62.44a7.09,7.09,0,0,1-2,5.11A6.9,6.9,0,0,1,419,109.48Zm57.54,0a7,7,0,0,1-7.15-7.14V67.9q0-8-2.93-13a18.51,18.51,0,0,0-7.91-7.49,25.56,25.56,0,0,0-11.41-2.45,23.41,23.41,0,0,0-10.64,2.38A19.82,19.82,0,0,0,429,53.69a15.55,15.55,0,0,0-2.8,9.17h-8.83a29.39,29.39,0,0,1,4.28-15.75,30.78,30.78,0,0,1,11.69-11A34.07,34.07,0,0,1,450,32.06a35.71,35.71,0,0,1,17.28,4.13,29.75,29.75,0,0,1,12,12.11q4.43,8,4.41,19.6v34.44a6.94,6.94,0,0,1-7.13,7.14Z"/><path class="cls-3" d="M526.33,109.9a37.89,37.89,0,0,1-33.53-19A39,39,0,0,1,487.69,71a41.34,41.34,0,0,1,4.69-19.81,36.41,36.41,0,0,1,12.81-13.86,33.71,33.71,0,0,1,18.34-5.11,34.44,34.44,0,0,1,27,12.74V7.14a6.88,6.88,0,0,1,2-5.18,7.06,7.06,0,0,1,5.11-2,7,7,0,0,1,5.18,2,7,7,0,0,1,2,5.18V71a38.9,38.9,0,0,1-5.11,19.88,37.67,37.67,0,0,1-33.39,19Zm0-12.6a23.86,23.86,0,0,0,12.74-3.43,24.28,24.28,0,0,0,8.82-9.45A28,28,0,0,0,551.11,71a27.49,27.49,0,0,0-3.22-13.44,24.52,24.52,0,0,0-8.82-9.31,25.25,25.25,0,0,0-25.41,0,25,25,0,0,0-9,9.31A27.09,27.09,0,0,0,501.41,71a27.58,27.58,0,0,0,3.29,13.44,24.7,24.7,0,0,0,9,9.45A24,24,0,0,0,526.33,97.3Z"/><path class="cls-3" d="M386.81,36.8a38.17,38.17,0,0,0-11.21-3.74,38.82,38.82,0,1,0,11.21,3.74ZM334.15,71.36A34.92,34.92,0,0,1,364.42,36.8a38.87,38.87,0,0,0,0,69.12A34.92,34.92,0,0,1,334.15,71.36Zm41.47,34.23a34.86,34.86,0,0,1,0-68.46,34.86,34.86,0,0,1,0,68.46Z"/></g></g></svg>